<mxfile host="app.diagrams.net" modified="2023-11-06T10:58:22.827Z" agent="Mozilla/5.0 (Windows NT 10.0; Win64; x64) AppleWebKit/537.36 (KHTML, like Gecko) Chrome/118.0.0.0 Safari/537.36" etag="FQZkFv-SiADT1PKN-iUj" version="22.0.8" type="device">
  <diagram name="第 1 页" id="oZ5swbbYnMnLz2Z9Qlki">
    <mxGraphModel dx="1115" dy="610" grid="1" gridSize="10" guides="1" tooltips="1" connect="1" arrows="1" fold="1" page="1" pageScale="1" pageWidth="827" pageHeight="1169" math="1" shadow="0">
      <root>
        <mxCell id="0" />
        <mxCell id="1" parent="0" />
        <mxCell id="QQpU97WV2WNEXV5v4VgA-59" value="" style="group;fontSize=17;" vertex="1" connectable="0" parent="1">
          <mxGeometry x="70" y="200" width="770" height="280" as="geometry" />
        </mxCell>
        <mxCell id="QQpU97WV2WNEXV5v4VgA-16" value="" style="whiteSpace=wrap;html=1;aspect=fixed;fillColor=#E6E6E6;strokeWidth=1.5;gradientColor=none;gradientDirection=north;opacity=50;" vertex="1" parent="QQpU97WV2WNEXV5v4VgA-59">
          <mxGeometry x="536.6666666666667" width="186.66666666666669" height="186.66666666666669" as="geometry" />
        </mxCell>
        <mxCell id="QQpU97WV2WNEXV5v4VgA-22" value="" style="ellipse;whiteSpace=wrap;html=1;aspect=fixed;fillColor=none;strokeWidth=1.5;" vertex="1" parent="QQpU97WV2WNEXV5v4VgA-59">
          <mxGeometry x="326.6666666666667" y="163.33333333333334" width="46.66666666666667" height="46.66666666666667" as="geometry" />
        </mxCell>
        <mxCell id="QQpU97WV2WNEXV5v4VgA-23" value="" style="ellipse;whiteSpace=wrap;html=1;aspect=fixed;fillColor=none;strokeWidth=1.5;" vertex="1" parent="QQpU97WV2WNEXV5v4VgA-59">
          <mxGeometry x="443.33333333333337" y="163.33333333333334" width="46.66666666666667" height="46.66666666666667" as="geometry" />
        </mxCell>
        <mxCell id="QQpU97WV2WNEXV5v4VgA-35" style="rounded=0;orthogonalLoop=1;jettySize=auto;html=1;exitX=1;exitY=0.5;exitDx=0;exitDy=0;entryX=0;entryY=0.5;entryDx=0;entryDy=0;endArrow=none;endFill=0;" edge="1" parent="QQpU97WV2WNEXV5v4VgA-59" source="QQpU97WV2WNEXV5v4VgA-22" target="QQpU97WV2WNEXV5v4VgA-23">
          <mxGeometry relative="1" as="geometry" />
        </mxCell>
        <mxCell id="QQpU97WV2WNEXV5v4VgA-39" style="rounded=0;orthogonalLoop=1;jettySize=auto;html=1;exitX=1;exitY=0.5;exitDx=0;exitDy=0;entryX=0;entryY=0.5;entryDx=0;entryDy=0;endArrow=none;endFill=0;" edge="1" parent="QQpU97WV2WNEXV5v4VgA-59" source="QQpU97WV2WNEXV5v4VgA-26" target="QQpU97WV2WNEXV5v4VgA-23">
          <mxGeometry relative="1" as="geometry" />
        </mxCell>
        <mxCell id="QQpU97WV2WNEXV5v4VgA-26" value="" style="ellipse;whiteSpace=wrap;html=1;aspect=fixed;fillColor=none;strokeWidth=1.5;" vertex="1" parent="QQpU97WV2WNEXV5v4VgA-59">
          <mxGeometry x="326.6666666666667" y="93.33333333333334" width="46.66666666666667" height="46.66666666666667" as="geometry" />
        </mxCell>
        <mxCell id="QQpU97WV2WNEXV5v4VgA-27" value="" style="ellipse;whiteSpace=wrap;html=1;aspect=fixed;fillColor=none;strokeWidth=1.5;" vertex="1" parent="QQpU97WV2WNEXV5v4VgA-59">
          <mxGeometry x="443.33333333333337" y="93.33333333333334" width="46.66666666666667" height="46.66666666666667" as="geometry" />
        </mxCell>
        <mxCell id="QQpU97WV2WNEXV5v4VgA-36" style="rounded=0;orthogonalLoop=1;jettySize=auto;html=1;exitX=1;exitY=0.5;exitDx=0;exitDy=0;entryX=0;entryY=0.5;entryDx=0;entryDy=0;endArrow=none;endFill=0;" edge="1" parent="QQpU97WV2WNEXV5v4VgA-59" source="QQpU97WV2WNEXV5v4VgA-22" target="QQpU97WV2WNEXV5v4VgA-27">
          <mxGeometry relative="1" as="geometry" />
        </mxCell>
        <mxCell id="QQpU97WV2WNEXV5v4VgA-38" style="rounded=0;orthogonalLoop=1;jettySize=auto;html=1;exitX=1;exitY=0.5;exitDx=0;exitDy=0;entryX=0;entryY=0.5;entryDx=0;entryDy=0;endArrow=none;endFill=0;" edge="1" parent="QQpU97WV2WNEXV5v4VgA-59" source="QQpU97WV2WNEXV5v4VgA-26" target="QQpU97WV2WNEXV5v4VgA-27">
          <mxGeometry relative="1" as="geometry" />
        </mxCell>
        <mxCell id="QQpU97WV2WNEXV5v4VgA-41" style="rounded=0;orthogonalLoop=1;jettySize=auto;html=1;exitX=1;exitY=0.5;exitDx=0;exitDy=0;entryX=0;entryY=0.5;entryDx=0;entryDy=0;endArrow=none;endFill=0;" edge="1" parent="QQpU97WV2WNEXV5v4VgA-59" source="QQpU97WV2WNEXV5v4VgA-28" target="QQpU97WV2WNEXV5v4VgA-23">
          <mxGeometry relative="1" as="geometry" />
        </mxCell>
        <mxCell id="QQpU97WV2WNEXV5v4VgA-42" style="rounded=0;orthogonalLoop=1;jettySize=auto;html=1;exitX=1;exitY=0.5;exitDx=0;exitDy=0;entryX=0;entryY=0.5;entryDx=0;entryDy=0;endArrow=none;endFill=0;" edge="1" parent="QQpU97WV2WNEXV5v4VgA-59" source="QQpU97WV2WNEXV5v4VgA-28" target="QQpU97WV2WNEXV5v4VgA-27">
          <mxGeometry relative="1" as="geometry" />
        </mxCell>
        <mxCell id="QQpU97WV2WNEXV5v4VgA-28" value="" style="ellipse;whiteSpace=wrap;html=1;aspect=fixed;fillColor=none;strokeWidth=1.5;" vertex="1" parent="QQpU97WV2WNEXV5v4VgA-59">
          <mxGeometry x="326.6666666666667" width="46.66666666666667" height="46.66666666666667" as="geometry" />
        </mxCell>
        <mxCell id="QQpU97WV2WNEXV5v4VgA-29" value="" style="ellipse;whiteSpace=wrap;html=1;aspect=fixed;fillColor=none;strokeWidth=1.5;" vertex="1" parent="QQpU97WV2WNEXV5v4VgA-59">
          <mxGeometry x="443.33333333333337" width="46.66666666666667" height="46.66666666666667" as="geometry" />
        </mxCell>
        <mxCell id="QQpU97WV2WNEXV5v4VgA-37" style="rounded=0;orthogonalLoop=1;jettySize=auto;html=1;exitX=1;exitY=0.5;exitDx=0;exitDy=0;entryX=0;entryY=0.5;entryDx=0;entryDy=0;endArrow=none;endFill=0;" edge="1" parent="QQpU97WV2WNEXV5v4VgA-59" source="QQpU97WV2WNEXV5v4VgA-22" target="QQpU97WV2WNEXV5v4VgA-29">
          <mxGeometry relative="1" as="geometry" />
        </mxCell>
        <mxCell id="QQpU97WV2WNEXV5v4VgA-40" style="rounded=0;orthogonalLoop=1;jettySize=auto;html=1;exitX=1;exitY=0.5;exitDx=0;exitDy=0;entryX=0;entryY=0.5;entryDx=0;entryDy=0;endArrow=none;endFill=0;" edge="1" parent="QQpU97WV2WNEXV5v4VgA-59" source="QQpU97WV2WNEXV5v4VgA-26" target="QQpU97WV2WNEXV5v4VgA-29">
          <mxGeometry relative="1" as="geometry" />
        </mxCell>
        <mxCell id="QQpU97WV2WNEXV5v4VgA-43" style="rounded=0;orthogonalLoop=1;jettySize=auto;html=1;exitX=1;exitY=0.5;exitDx=0;exitDy=0;entryX=0;entryY=0.5;entryDx=0;entryDy=0;endArrow=none;endFill=0;" edge="1" parent="QQpU97WV2WNEXV5v4VgA-59" source="QQpU97WV2WNEXV5v4VgA-28" target="QQpU97WV2WNEXV5v4VgA-29">
          <mxGeometry relative="1" as="geometry" />
        </mxCell>
        <mxCell id="QQpU97WV2WNEXV5v4VgA-31" style="rounded=0;orthogonalLoop=1;jettySize=auto;html=1;exitX=1;exitY=0.5;exitDx=0;exitDy=0;entryX=0;entryY=0.5;entryDx=0;entryDy=0;endArrow=none;endFill=0;" edge="1" parent="QQpU97WV2WNEXV5v4VgA-59" source="QQpU97WV2WNEXV5v4VgA-4" target="QQpU97WV2WNEXV5v4VgA-22">
          <mxGeometry relative="1" as="geometry" />
        </mxCell>
        <mxCell id="QQpU97WV2WNEXV5v4VgA-34" style="rounded=0;orthogonalLoop=1;jettySize=auto;html=1;exitX=1;exitY=0.5;exitDx=0;exitDy=0;entryX=0;entryY=0.5;entryDx=0;entryDy=0;endArrow=none;endFill=0;" edge="1" parent="QQpU97WV2WNEXV5v4VgA-59" source="QQpU97WV2WNEXV5v4VgA-6" target="QQpU97WV2WNEXV5v4VgA-28">
          <mxGeometry relative="1" as="geometry" />
        </mxCell>
        <mxCell id="QQpU97WV2WNEXV5v4VgA-1" value="" style="whiteSpace=wrap;html=1;aspect=fixed;fillColor=#E6E6E6;strokeWidth=1.5;gradientColor=none;gradientDirection=north;opacity=50;" vertex="1" parent="QQpU97WV2WNEXV5v4VgA-59">
          <mxGeometry x="23.333333333333336" width="186.66666666666669" height="186.66666666666669" as="geometry" />
        </mxCell>
        <mxCell id="QQpU97WV2WNEXV5v4VgA-6" value="" style="whiteSpace=wrap;html=1;aspect=fixed;fillColor=#E6E6E6;strokeWidth=1.5;gradientColor=none;gradientDirection=north;opacity=70;" vertex="1" parent="QQpU97WV2WNEXV5v4VgA-59">
          <mxGeometry x="163.33333333333334" width="46.66666666666667" height="46.66666666666667" as="geometry" />
        </mxCell>
        <mxCell id="QQpU97WV2WNEXV5v4VgA-2" value="" style="whiteSpace=wrap;html=1;aspect=fixed;fillColor=#E6E6E6;strokeWidth=1.5;gradientColor=none;gradientDirection=north;opacity=50;" vertex="1" parent="QQpU97WV2WNEXV5v4VgA-59">
          <mxGeometry x="46.66666666666667" y="46.66666666666667" width="186.66666666666669" height="186.66666666666669" as="geometry" />
        </mxCell>
        <mxCell id="QQpU97WV2WNEXV5v4VgA-5" value="" style="whiteSpace=wrap;html=1;aspect=fixed;fillColor=#E6E6E6;strokeWidth=1.5;gradientColor=none;gradientDirection=north;opacity=70;" vertex="1" parent="QQpU97WV2WNEXV5v4VgA-59">
          <mxGeometry x="186.66666666666669" y="46.66666666666667" width="46.66666666666667" height="46.66666666666667" as="geometry" />
        </mxCell>
        <mxCell id="QQpU97WV2WNEXV5v4VgA-33" style="rounded=0;orthogonalLoop=1;jettySize=auto;html=1;exitX=1;exitY=0.5;exitDx=0;exitDy=0;entryX=0;entryY=0.5;entryDx=0;entryDy=0;endArrow=none;endFill=0;" edge="1" parent="QQpU97WV2WNEXV5v4VgA-59" source="QQpU97WV2WNEXV5v4VgA-5" target="QQpU97WV2WNEXV5v4VgA-26">
          <mxGeometry relative="1" as="geometry" />
        </mxCell>
        <mxCell id="QQpU97WV2WNEXV5v4VgA-3" value="&lt;font style=&quot;font-size: 20px;&quot;&gt;28x28&lt;/font&gt;" style="whiteSpace=wrap;html=1;aspect=fixed;fillColor=#E6E6E6;strokeWidth=1.5;gradientColor=none;gradientDirection=north;opacity=50;" vertex="1" parent="QQpU97WV2WNEXV5v4VgA-59">
          <mxGeometry x="70" y="70" width="186.66666666666669" height="186.66666666666669" as="geometry" />
        </mxCell>
        <mxCell id="QQpU97WV2WNEXV5v4VgA-4" value="&lt;font style=&quot;font-size: 18px;&quot;&gt;1x1&lt;/font&gt;" style="whiteSpace=wrap;html=1;aspect=fixed;fillColor=#E6E6E6;strokeWidth=1.5;gradientColor=none;gradientDirection=north;opacity=70;" vertex="1" parent="QQpU97WV2WNEXV5v4VgA-59">
          <mxGeometry x="210" y="70" width="46.66666666666667" height="46.66666666666667" as="geometry" />
        </mxCell>
        <mxCell id="QQpU97WV2WNEXV5v4VgA-17" value="" style="whiteSpace=wrap;html=1;aspect=fixed;fillColor=#E6E6E6;strokeWidth=1.5;gradientColor=none;gradientDirection=north;opacity=70;" vertex="1" parent="QQpU97WV2WNEXV5v4VgA-59">
          <mxGeometry x="676.6666666666667" width="46.66666666666667" height="46.66666666666667" as="geometry" />
        </mxCell>
        <mxCell id="QQpU97WV2WNEXV5v4VgA-46" style="rounded=0;orthogonalLoop=1;jettySize=auto;html=1;exitX=1;exitY=0.5;exitDx=0;exitDy=0;entryX=0;entryY=0.5;entryDx=0;entryDy=0;endArrow=none;endFill=0;" edge="1" parent="QQpU97WV2WNEXV5v4VgA-59" source="QQpU97WV2WNEXV5v4VgA-29" target="QQpU97WV2WNEXV5v4VgA-17">
          <mxGeometry relative="1" as="geometry" />
        </mxCell>
        <mxCell id="QQpU97WV2WNEXV5v4VgA-18" value="" style="whiteSpace=wrap;html=1;aspect=fixed;fillColor=#E6E6E6;strokeWidth=1.5;gradientColor=none;gradientDirection=north;opacity=50;" vertex="1" parent="QQpU97WV2WNEXV5v4VgA-59">
          <mxGeometry x="560" y="46.66666666666667" width="186.66666666666669" height="186.66666666666669" as="geometry" />
        </mxCell>
        <mxCell id="QQpU97WV2WNEXV5v4VgA-19" value="" style="whiteSpace=wrap;html=1;aspect=fixed;fillColor=#E6E6E6;strokeWidth=1.5;gradientColor=none;gradientDirection=north;opacity=70;" vertex="1" parent="QQpU97WV2WNEXV5v4VgA-59">
          <mxGeometry x="700" y="46.66666666666667" width="46.66666666666667" height="46.66666666666667" as="geometry" />
        </mxCell>
        <mxCell id="QQpU97WV2WNEXV5v4VgA-45" style="rounded=0;orthogonalLoop=1;jettySize=auto;html=1;exitX=1;exitY=0.5;exitDx=0;exitDy=0;entryX=0;entryY=0.5;entryDx=0;entryDy=0;endArrow=none;endFill=0;" edge="1" parent="QQpU97WV2WNEXV5v4VgA-59" source="QQpU97WV2WNEXV5v4VgA-27" target="QQpU97WV2WNEXV5v4VgA-19">
          <mxGeometry relative="1" as="geometry">
            <mxPoint x="513.3333333333334" y="70" as="targetPoint" />
          </mxGeometry>
        </mxCell>
        <mxCell id="QQpU97WV2WNEXV5v4VgA-20" value="&lt;font style=&quot;font-size: 20px;&quot;&gt;28x28&lt;/font&gt;" style="whiteSpace=wrap;html=1;aspect=fixed;fillColor=#E6E6E6;strokeWidth=1.5;gradientColor=none;gradientDirection=north;opacity=50;" vertex="1" parent="QQpU97WV2WNEXV5v4VgA-59">
          <mxGeometry x="583.3333333333334" y="70" width="186.66666666666669" height="186.66666666666669" as="geometry" />
        </mxCell>
        <mxCell id="QQpU97WV2WNEXV5v4VgA-21" value="&lt;font style=&quot;font-size: 18px;&quot;&gt;1x1&lt;/font&gt;" style="whiteSpace=wrap;html=1;aspect=fixed;fillColor=#E6E6E6;strokeWidth=1.5;gradientColor=none;gradientDirection=north;opacity=70;" vertex="1" parent="QQpU97WV2WNEXV5v4VgA-59">
          <mxGeometry x="723.3333333333334" y="70" width="46.66666666666667" height="46.66666666666667" as="geometry" />
        </mxCell>
        <mxCell id="QQpU97WV2WNEXV5v4VgA-44" style="rounded=0;orthogonalLoop=1;jettySize=auto;html=1;exitX=1;exitY=0.5;exitDx=0;exitDy=0;entryX=0;entryY=0.5;entryDx=0;entryDy=0;endArrow=none;endFill=0;" edge="1" parent="QQpU97WV2WNEXV5v4VgA-59" source="QQpU97WV2WNEXV5v4VgA-23" target="QQpU97WV2WNEXV5v4VgA-21">
          <mxGeometry relative="1" as="geometry" />
        </mxCell>
        <mxCell id="QQpU97WV2WNEXV5v4VgA-47" value="&lt;font style=&quot;font-size: 18px;&quot;&gt;1&lt;/font&gt;" style="rounded=1;whiteSpace=wrap;html=1;fillColor=none;strokeColor=none;" vertex="1" parent="QQpU97WV2WNEXV5v4VgA-59">
          <mxGeometry x="46.66666666666667" y="256.6666666666667" width="23.333333333333336" height="23.333333333333336" as="geometry" />
        </mxCell>
        <mxCell id="QQpU97WV2WNEXV5v4VgA-48" value="&lt;font style=&quot;font-size: 18px;&quot;&gt;192&lt;/font&gt;" style="rounded=1;whiteSpace=wrap;html=1;fillColor=none;strokeColor=none;fontSize=18;" vertex="1" parent="QQpU97WV2WNEXV5v4VgA-59">
          <mxGeometry y="186.66666666666669" width="23.333333333333336" height="23.333333333333336" as="geometry" />
        </mxCell>
        <mxCell id="QQpU97WV2WNEXV5v4VgA-49" value="&lt;font style=&quot;font-size: 18px;&quot;&gt;2&lt;/font&gt;" style="rounded=1;whiteSpace=wrap;html=1;fillColor=none;strokeColor=none;fontSize=18;" vertex="1" parent="QQpU97WV2WNEXV5v4VgA-59">
          <mxGeometry x="23.333333333333336" y="233.33333333333334" width="23.333333333333336" height="23.333333333333336" as="geometry" />
        </mxCell>
        <mxCell id="QQpU97WV2WNEXV5v4VgA-51" value="&lt;font style=&quot;font-size: 18px;&quot;&gt;1&lt;/font&gt;" style="rounded=1;whiteSpace=wrap;html=1;fillColor=none;strokeColor=none;fontSize=18;" vertex="1" parent="QQpU97WV2WNEXV5v4VgA-59">
          <mxGeometry x="560" y="256.6666666666667" width="23.333333333333336" height="23.333333333333336" as="geometry" />
        </mxCell>
        <mxCell id="QQpU97WV2WNEXV5v4VgA-52" value="&lt;font style=&quot;font-size: 18px;&quot;&gt;2&lt;/font&gt;" style="rounded=1;whiteSpace=wrap;html=1;fillColor=none;strokeColor=none;fontSize=18;" vertex="1" parent="QQpU97WV2WNEXV5v4VgA-59">
          <mxGeometry x="536.6666666666667" y="233.33333333333334" width="23.333333333333336" height="23.333333333333336" as="geometry" />
        </mxCell>
        <mxCell id="QQpU97WV2WNEXV5v4VgA-53" value="&lt;font style=&quot;font-size: 18px;&quot;&gt;64&lt;/font&gt;" style="rounded=1;whiteSpace=wrap;html=1;fillColor=none;strokeColor=none;fontSize=18;" vertex="1" parent="QQpU97WV2WNEXV5v4VgA-59">
          <mxGeometry x="513.3333333333334" y="186.66666666666669" width="23.333333333333336" height="23.333333333333336" as="geometry" />
        </mxCell>
        <mxCell id="QQpU97WV2WNEXV5v4VgA-55" value="" style="endArrow=none;dashed=1;html=1;strokeWidth=2;rounded=0;dashPattern=1 2;" edge="1" parent="QQpU97WV2WNEXV5v4VgA-59">
          <mxGeometry width="50" height="50" relative="1" as="geometry">
            <mxPoint x="349.7666666666667" y="93.33333333333334" as="sourcePoint" />
            <mxPoint x="349.7666666666667" y="46.66666666666667" as="targetPoint" />
          </mxGeometry>
        </mxCell>
        <mxCell id="QQpU97WV2WNEXV5v4VgA-57" value="" style="endArrow=none;dashed=1;html=1;strokeWidth=2;rounded=0;dashPattern=1 2;" edge="1" parent="QQpU97WV2WNEXV5v4VgA-59">
          <mxGeometry width="50" height="50" relative="1" as="geometry">
            <mxPoint x="466.43333333333334" y="93.33333333333334" as="sourcePoint" />
            <mxPoint x="466.43333333333334" y="46.66666666666667" as="targetPoint" />
          </mxGeometry>
        </mxCell>
        <mxCell id="QQpU97WV2WNEXV5v4VgA-102" value="$$1\times 1\times 64$$&lt;br&gt; " style="rounded=1;whiteSpace=wrap;html=1;fillColor=none;strokeColor=none;fontSize=18;arcSize=50;verticalAlign=middle;align=center;" vertex="1" parent="QQpU97WV2WNEXV5v4VgA-59">
          <mxGeometry x="304" y="230" width="210" height="40" as="geometry" />
        </mxCell>
      </root>
    </mxGraphModel>
  </diagram>
</mxfile>
